#!OML:ASF H:\Terrain\Patient Classification 1\Walking\steve\steve.ASF
:FULLY-SPECIFIED
:DEGREES
31
root 7.36514 14.9567 -29.6585 7.88506 4.23442 1.83953
lowerback 0.783675 -1.11519 -0.637898
upperback -4.04805 -1.40507 2.68398
thorax -4.5341 -0.6201 3.20054
lowerneck -12.3167 0.855857 -5.31297
upperneck 9.75788 2.029 0.434684
head 4.89092 0.822856 1.14971
rclavicle 2.23633e-016 -3.18055e-015
rhumerus -87.5246 -28.0682 -16.0235
rradius 12.0326
rwrist 50.1374
rhand -14.3147 -34.5272
rfingers 7.12502
rthumb 11.8257 -64.1733
lclavicle 2.23633e-016 -3.18055e-015
lhumerus -14.2136 -4.84864 84.7164
lradius 55.712
lwrist 30.2367
lhand -29.8732 -16.0617
lfingers 7.12502
lthumb -3.19505 13.8941
rfemur -46.9619 4.58923 20.7014
rtibia 39.8598
rfoot -5.71891 2.75517
rtoes 4.76122
lfemur 12.6443 -1.50251 -22.8641
ltibia 28.7243
lfoot 16.0347 1.77924
ltoes 6.7801
32
root 7.37606 14.9677 -29.4025 7.55323 3.80552 1.4878
lowerback 1.01002 -0.969173 -0.212424
upperback -3.83529 -1.19071 2.85455
thorax -4.45842 -0.527807 3.12966
lowerneck -12.2663 1.19758 -5.62065
upperneck 9.53129 2.48724 0.826381
head 4.789 1.06719 1.35249
rclavicle -1.94374e-014 -7.95139e-016
rhumerus -86.0197 -28.8939 -18.0005
rradius 12.5211
rwrist 47.3251
rhand -12.8984 -36.1745
rfingers 7.12502
rthumb 13.1911 -65.7372
lclavicle -1.94374e-014 -7.95139e-016
lhumerus -15.0292 -4.55034 84.966
lradius 55.9775
lwrist 30.2755
lhand -29.7594 -15.4161
lfingers 7.12502
lthumb -3.08512 14.5413
rfemur -46.4502 4.98289 21.3024
rtibia 41.2577
rfoot -6.17488 3.20949
rtoes 6.14583
lfemur 10.9767 -1.36828 -22.4619
ltibia 32.9569
lfoot 18.1446 3.50828
ltoes 7.55815
33
root 7.38905 14.9749 -29.1481 7.15886 3.58088 1.23462
lowerback 1.40078 -0.850985 0.165124
upperback -3.67302 -1.01421 2.91471
thorax -4.52643 -0.452544 2.97655
lowerneck -13.3263 1.02951 -4.75072
upperneck 10.4422 2.31566 -0.208749
head 5.27843 0.923402 0.894592
rclavicle 2.3966e-014 -2.70347e-014
rhumerus -84.9757 -29.5536 -19.5739
rradius 12.8463
rwrist 45.4373
rhand -12.5584 -36.9907
rfingers 7.12502
rthumb 13.5188 -66.5319
lclavicle 2.3966e-014 -2.70347e-014
lhumerus -15.6219 -4.28694 85.2641
lradius 55.5734
lwrist 30.2598
lhand -29.7582 -15.232
lfingers 7.12502
lthumb -3.08399 14.7255
rfemur -45.5552 5.17271 21.8263
rtibia 42.231
rfoot -6.54906 3.50632
rtoes 6.83159
lfemur 9.33667 -1.37137 -22.1997
ltibia 37.0417
lfoot 20.3821 5.70149
ltoes 8.45535
34
root 7.39552 15.0072 -28.8932 6.87738 3.32978 0.862534
lowerback 1.84379 -0.726653 0.543986
upperback -3.71101 -0.818312 3.00766
thorax -4.83259 -0.364331 2.85931
lowerneck -12.9951 0.894119 -4.29582
upperneck 10.02 2.09193 -0.756624
head 5.1081 0.802992 0.626591
rclavicle 3.34828e-015 -9.54166e-015
rhumerus -85.3415 -30.5392 -18.241
rradius 12.743
rwrist 46.7775
rhand -12.7339 -37.0643
rfingers 7.12502
rthumb 13.3497 -66.6166
lclavicle 3.34828e-015 -9.54166e-015
lhumerus -16.2187 -3.81206 85.6369
lradius 54.5905
lwrist 30.1286
lhand -29.1718 -15.1669
lfingers 7.12502
lthumb -2.51766 14.798
rfemur -44.5304 4.6015 22.8542
rtibia 42.8386
rfoot -6.58402 4.33093
rtoes 7.8149
lfemur 7.61859 -1.15025 -21.7977
ltibia 40.8209
lfoot 22.5757 7.27558
ltoes 3.7941
35
root 7.38905 15.0593 -28.6397 6.70392 3.06097 0.255115
lowerback 2.06107 -0.559624 0.974949
upperback -3.6913 -0.561472 3.21068
thorax -4.95074 -0.247819 2.81638
lowerneck -12.6431 0.778028 -4.19768
upperneck 9.41602 1.91162 -0.974925
head 4.86837 0.71754 0.522955
rclavicle -1.34304e-014 2.14687e-014
rhumerus -83.9795 -30.9044 -20.378
rradius 12.9804
rwrist 44.9253
rhand -12.6049 -37.3008
rfingers 7.12502
rthumb 13.474 -66.8449
lclavicle -1.34304e-014 2.14687e-014
lhumerus -17.1402 -3.59995 86.0318
lradius 54.1614
lwrist 30.1103
lhand -28.8728 -14.4946
lfingers 7.12502
lthumb -2.22888 15.4735
rfemur -43.4166 4.33176 24.0145
rtibia 43.1096
rfoot -6.85654 5.14599
rtoes 9.05466
lfemur 5.84936 -0.314986 -20.9913
ltibia 44.3301
lfoot 24.7412 6.70039
ltoes -11.4631
36
root 7.38217 15.0959 -28.396 6.56422 3.05068 -0.251452
lowerback 2.11721 -0.465582 1.32568
upperback -3.59509 -0.41252 3.40205
thorax -4.89045 -0.183385 2.80837
lowerneck -12.725 0.706295 -4.36581
upperneck 9.30176 1.83686 -0.893947
head 4.8453 0.682201 0.569262
rclavicle 4.27387e-015 -1.35174e-014
rhumerus -81.6786 -30.9283 -24.3162
rradius 13.4172
rwrist 41.6134
rhand -12.5842 -37.815
rfingers 7.12502
rthumb 13.494 -67.3578
lclavicle 4.27387e-015 -1.35174e-014
lhumerus -18.4318 -3.65287 86.4232
lradius 54.3273
lwrist 30.21
lhand -28.9256 -13.2321
lfingers 7.12502
lthumb -2.2799 16.7355
rfemur -42.2938 4.54974 24.7273
rtibia 43.1878
rfoot -7.44162 5.25282
rtoes 9.58026
lfemur 4.24889 -0.243916 -20.2159
ltibia 47.5109
lfoot 22.688 13.2929
ltoes 2.2063
37
root 7.37765 15.143 -28.1513 6.42751 3.12879 -0.570344
lowerback 2.21564 -0.403138 1.6073
upperback -3.57996 -0.309093 3.48295
thorax -4.93658 -0.14059 2.72895
lowerneck -12.6147 0.697481 -4.47723
upperneck 9.31712 1.80702 -0.627055
head 4.82836 0.681615 0.667316
rclavicle -1.29583e-014 4.37326e-014
rhumerus -81.5983 -32.3102 -23.519
rradius 13.2511
rwrist 42.8797
rhand -12.6245 -38.5102
rfingers 7.12502
rthumb 13.4552 -68.0556
lclavicle -1.29583e-014 4.37326e-014
lhumerus -19.6179 -3.71035 86.8034
lradius 54.0668
lwrist 30.2551
lhand -28.4532 -12.2864
lfingers 7.12502
lthumb -1.82365 17.6856
rfemur -41.1447 4.69184 25.2028
rtibia 43.2105
rfoot -8.14017 5.22089
rtoes 9.98846
lfemur 2.5403 -0.0081952 -19.6225
ltibia 50.5049
lfoot 20.3845 15.0331
ltoes 6.04689
38
root 7.37286 15.1984 -27.9049 6.32999 3.13135 -0.920925
lowerback 2.19235 -0.252573 1.94058
upperback -3.45359 -0.0974563 3.49602
thorax -4.79957 -0.0476719 2.53939
lowerneck -12.2526 0.684849 -4.55626
upperneck 8.76842 1.72488 -0.222993
head 4.5947 0.677094 0.793987
rclavicle 1.65861e-015 0
rhumerus -80.7192 -33.4205 -24.5735
rradius 13.3355
rwrist 42.4534
rhand -12.5644 -39.1193
rfingers 7.12502
rthumb 13.5131 -68.6609
lclavicle 1.65861e-015 0
lhumerus -20.1754 -3.87713 87.1713
lradius 53.0594
lwrist 30.1064
lhand -27.9657 -12.6016
lfingers 7.12502
lthumb -1.35281 17.3739
rfemur -39.993 4.84776 25.7094
rtibia 43.2832
rfoot -9.06742 5.3557
rtoes 9.33231
lfemur 0.750723 0.379828 -19.0444
ltibia 53.3087
lfoot 18.3589 13.9557
ltoes 4.05918
39
root 7.36697 15.2422 -27.6647 6.20523 3.07998 -1.28888
lowerback 2.10659 -0.0828529 2.212
upperback -3.18894 0.129386 3.56255
thorax -4.4812 0.0570234 2.4378
lowerneck -11.3519 0.762759 -5.43377
upperneck 7.31557 1.77785 0.902283
head 3.97872 0.771915 1.27
rclavicle 4.32357e-015 -2.38542e-015
rhumerus -78.5373 -34.0845 -27.6173
rradius 13.6491
rwrist 40.2827
rhand -12.944 -38.9099
rfingers 7.12502
rthumb 13.1471 -68.4754
lclavicle 4.32357e-015 -2.38542e-015
lhumerus -20.4913 -3.99252 87.5957
lradius 51.8024
lwrist 29.8221
lhand -27.6596 -12.9706
lfingers 7.12502
lthumb -1.05712 17.0066
rfemur -38.7924 5.03814 26.2483
rtibia 43.287
rfoot -10.0088 5.43549
rtoes 6.508
lfemur -1.05241 0.865045 -18.4925
ltibia 56.0063
lfoot 16.2398 12.3086
ltoes 1.91416
40
root 7.3627 15.2739 -27.4284 6.08765 2.99216 -1.62272
lowerback 2.11645 0.0525064 2.5062
upperback -3.08361 0.321595 3.63193
thorax -4.38167 0.144425 2.33227
lowerneck -12.5453 0.365486 -5.14999
upperneck 8.529 1.35338 0.285652
head 4.56877 0.510984 1.02
rclavicle -2.17421e-015 8.74653e-015
rhumerus -77.012 -35.071 -29.0018
rradius 13.7144
rwrist 39.6516
rhand -13.3392 -38.678
rfingers 7.12502
rthumb 12.7662 -68.2677
lclavicle -2.17421e-015 8.74653e-015
lhumerus -21.205 -3.97206 88.0617
lradius 50.5641
lwrist 29.591
lhand -27.0904 -12.5639
lfingers 7.12502
lthumb -0.507428 17.4153
rfemur -37.6096 5.14276 26.8248
rtibia 43.1454
rfoot -10.849 5.3784
rtoes 2.81304
lfemur -2.99907 1.55283 -18.0464
ltibia 58.6172
lfoot 15.3477 8.71529
ltoes -9.50188
41
root 7.36237 15.3121 -27.1898 6.14086 2.97834 -1.94215
lowerback 1.96966 0.187435 2.8788
upperback -3.14772 0.512592 3.61757
thorax -4.36684 0.226981 2.09772
lowerneck -12.6923 0.295851 -4.89277
upperneck 9.06014 1.248 0.148792
head 4.76309 0.448934 0.931879
rclavicle -1.09083e-014 -2.94201e-014
rhumerus -74.6866 -35.1408 -32.5438
rradius 14.2133
rwrist 37.0989
rhand -13.5911 -39.1699
rfingers 7.12502
rthumb 12.5233 -68.7746
lclavicle -1.09083e-014 -2.94201e-014
lhumerus -22.2623 -4.17669 88.4893
lradius 49.401
lwrist 29.4378
lhand -26.465 -12.0526
lfingers 7.12502
lthumb 0.0966395 17.9271
rfemur -36.4834 5.13941 27.362
rtibia 42.82
rfoot -11.7727 5.44516
rtoes 0.916016
lfemur -5.25089 1.97194 -17.6481
ltibia 61.0999
lfoot 12.8176 6.20983
ltoes -19.0866
42
root 7.36351 15.3597 -26.9509 6.24681 2.94649 -2.1297
lowerback 1.66739 0.342166 3.05641
upperback -3.15567 0.709046 3.58782
thorax -4.2042 0.319455 1.95696
lowerneck -12.5021 0.355451 -4.66332
upperneck 9.26394 1.28471 0.111453
head 4.79563 0.469308 0.886377
rclavicle -4.57205e-015 -1.98785e-014
rhumerus -72.3029 -35.285 -35.9632
rradius 14.7295
rwrist 34.7393
rhand -14.254 -38.6382
rfingers 7.12502
rthumb 11.8842 -68.281
lclavicle -4.57205e-015 -1.98785e-014
lhumerus -23.3508 -4.67983 88.961
lradius 48.3939
lwrist 29.3211
lhand -26.2328 -11.5793
lfingers 7.12502
lthumb 0.320858 18.4002
rfemur -35.3054 5.16486 27.6913
rtibia 42.3332
rfoot -12.5851 5.65591
rtoes 0.784206
lfemur -7.49422 2.04242 -17.3338
ltibia 63.3681
lfoot 7.59371 5.78657
ltoes -17.5672
43
root 7.36249 15.4116 -26.7182 6.34048 2.75045 -2.29778
lowerback 1.47113 0.509673 3.17329
upperback -3.15588 0.926546 3.60206
thorax -4.09437 0.425085 1.89609
lowerneck -12.1721 0.487342 -4.72369
upperneck 9.15079 1.43987 0.217514
head 4.70102 0.552906 0.938395
rclavicle -5.10628e-015 -3.4191e-014
rhumerus -69.9834 -35.7365 -38.4807
rradius 15.0088
rwrist 33.119
rhand -14.732 -36.9011
rfingers 7.12502
rthumb 11.4233 -66.5699
lclavicle -5.10628e-015 -3.4191e-014
lhumerus -24.2882 -4.94812 89.4421
lradius 47.0481
lwrist 29.121
lhand -26.1692 -11.0347
lfingers 7.12502
lthumb 0.382331 18.9447
rfemur -34.1374 5.33366 27.9834
rtibia 41.7944
rfoot -12.9776 5.90518
rtoes 2.02385
lfemur -9.64269 2.26612 -17.1012
ltibia 65.2767
lfoot 6.71186 6.0413
ltoes -8.69805
